<svg width="18" height="20" viewBox="0 0 18 20" fill="none" xmlns="http://www.w3.org/2000/svg">
<path d="M9 11.5024L9 13.5024" stroke="#242A49" stroke-width="1.5" stroke-linecap="round"/>
<path d="M1.6531 15.0287L0.958388 15.3114L0.958389 15.3114L1.6531 15.0287ZM1.30609 9.39956L2.03006 9.59543L1.30609 9.39956ZM16.6939 9.39956L15.9699 9.59542L16.6939 9.39956ZM16.3469 15.0287L17.0416 15.3114V15.3114L16.3469 15.0287ZM11.0365 18.8442L10.9206 18.1032L11.0365 18.8442ZM6.96352 18.8442L7.07941 18.1032L6.96352 18.8442ZM5.65619 5.60458L5.50672 4.86962L5.65619 5.60458ZM12.3438 5.60458L12.4933 4.86962L12.4933 4.86962L12.3438 5.60458ZM6.21479 18.7271L6.0989 19.4681L6.21479 18.7271ZM1.74598 15.2571L2.44069 14.9744L2.44069 14.9744L1.74598 15.2571ZM11.7852 18.7271L11.9011 19.4681L11.7852 18.7271ZM16.254 15.2571L15.5593 14.9744V14.9744L16.254 15.2571ZM12.6199 5.66073L12.4705 6.39568L12.4705 6.39569L12.6199 5.66073ZM5.38009 5.66073L5.52956 6.39568L5.38009 5.66073ZM3.89397 5.43304C3.89397 5.84725 4.22976 6.18304 4.64397 6.18304C5.05819 6.18304 5.39397 5.84725 5.39397 5.43304H3.89397ZM4.64397 5.13015H3.89397H4.64397ZM13.356 5.13016H12.606H13.356ZM12.606 5.43304C12.606 5.84725 12.9418 6.18304 13.356 6.18304C13.7702 6.18304 14.106 5.84725 14.106 5.43304H12.606ZM7.8517 1.1437L7.6697 0.416121L7.6697 0.416121L7.8517 1.1437ZM10.1482 1.1437L10.3302 0.416121V0.416121L10.1482 1.1437ZM5.52956 6.39568L5.80567 6.33953L5.50672 4.86962L5.23062 4.92577L5.52956 6.39568ZM12.1943 6.33953L12.4705 6.39568L12.7694 4.92578L12.4933 4.86962L12.1943 6.33953ZM11.6693 17.9861L10.9206 18.1032L11.1523 19.5852L11.9011 19.4681L11.6693 17.9861ZM7.07941 18.1032L6.33068 17.9861L6.0989 19.4681L6.84762 19.5852L7.07941 18.1032ZM15.6522 14.7461L15.5593 14.9744L16.9487 15.5397L17.0416 15.3114L15.6522 14.7461ZM2.44069 14.9744L2.3478 14.7461L0.958389 15.3114L1.05128 15.5397L2.44069 14.9744ZM2.34781 14.7461C1.67941 13.1032 1.56858 11.3012 2.03006 9.59543L0.58212 9.20369C0.0346517 11.2273 0.166701 13.3654 0.958388 15.3114L2.34781 14.7461ZM15.9699 9.59542C16.4314 11.3012 16.3206 13.1032 15.6522 14.7461L17.0416 15.3114C17.8333 13.3654 17.9654 11.2273 17.4179 9.20369L15.9699 9.59542ZM10.9206 18.1032C9.64859 18.3022 8.35138 18.3022 7.07941 18.1032L6.84762 19.5852C8.27318 19.8082 9.72678 19.8082 11.1523 19.5852L10.9206 18.1032ZM5.80567 6.33953C7.9118 5.9112 10.0882 5.9112 12.1943 6.33953L12.4933 4.86962C10.1899 4.40117 7.81013 4.40117 5.50672 4.86962L5.80567 6.33953ZM6.33068 17.9861C4.55628 17.7086 3.08366 16.5549 2.44069 14.9744L1.05128 15.5397C1.90076 17.6277 3.82633 19.1127 6.0989 19.4681L6.33068 17.9861ZM11.9011 19.4681C14.1736 19.1127 16.0992 17.6277 16.9487 15.5397L15.5593 14.9744C14.9163 16.5549 13.4437 17.7086 11.6693 17.9861L11.9011 19.4681ZM12.4705 6.39569C14.1912 6.74564 15.5368 7.99456 15.9699 9.59542L17.4179 9.20369C16.8298 7.0301 15.0205 5.38359 12.7694 4.92578L12.4705 6.39569ZM5.23062 4.92577C2.97952 5.38359 1.17018 7.0301 0.58212 9.20369L2.03006 9.59543C2.46317 7.99456 3.80883 6.74564 5.52956 6.39568L5.23062 4.92577ZM5.39397 5.43304V5.13015H3.89397V5.43304H5.39397ZM12.606 5.13016V5.43304H14.106V5.13016H12.606ZM8.03371 1.87128C8.66717 1.71283 9.33277 1.71283 9.96623 1.87128L10.3302 0.416121C9.45779 0.197882 8.54215 0.197882 7.6697 0.416121L8.03371 1.87128ZM14.106 5.13016C14.106 2.89227 12.535 0.967627 10.3302 0.416121L9.96623 1.87128C11.5399 2.26494 12.606 3.61752 12.606 5.13016H14.106ZM5.39397 5.13015C5.39397 3.61752 6.46002 2.26494 8.03371 1.87128L7.6697 0.416121C5.46497 0.967626 3.89397 2.89226 3.89397 5.13015H5.39397Z" fill="#242A49"/>
</svg>
