<svg width="86" height="86" viewBox="0 0 86 86" fill="none" xmlns="http://www.w3.org/2000/svg">
<path d="M60.917 76.1457H25.0837C23.6145 76.1457 22.3962 74.9273 22.3962 73.4582C22.3962 71.989 23.6145 70.7707 25.0837 70.7707H60.917C71.1653 70.7707 76.1462 65.7898 76.1462 55.5415V30.4582C76.1462 20.2098 71.1653 15.229 60.917 15.229H25.0837C14.8353 15.229 9.85449 20.2098 9.85449 30.4582C9.85449 31.9273 8.63616 33.1457 7.16699 33.1457C5.69783 33.1457 4.47949 31.9273 4.47949 30.4582C4.47949 17.379 12.0045 9.854 25.0837 9.854H60.917C73.9962 9.854 81.5212 17.379 81.5212 30.4582V55.5415C81.5212 68.6207 73.9962 76.1457 60.917 76.1457Z" fill="#6280FE"/>
<path d="M42.9991 46.1174C39.9891 46.1174 36.9433 45.1857 34.6141 43.2866L23.3983 34.3282C22.2516 33.3966 22.0366 31.7124 22.9683 30.5657C23.9 29.4191 25.5841 29.2041 26.7308 30.1357L37.9466 39.0941C40.6699 41.2799 45.2924 41.2799 48.0158 39.0941L59.2316 30.1357C60.3783 29.2041 62.0982 29.3832 62.9941 30.5657C63.9257 31.7124 63.7466 33.4324 62.5641 34.3282L51.3482 43.2866C49.0549 45.1857 46.0091 46.1174 42.9991 46.1174Z" fill="#6280FE"/>
<path d="M28.667 61.8125H7.16699C5.69783 61.8125 4.47949 60.5942 4.47949 59.125C4.47949 57.6558 5.69783 56.4375 7.16699 56.4375H28.667C30.1362 56.4375 31.3545 57.6558 31.3545 59.125C31.3545 60.5942 30.1362 61.8125 28.667 61.8125Z" fill="#6280FE"/>
<path d="M17.917 47.479H7.16699C5.69783 47.479 4.47949 46.2607 4.47949 44.7915C4.47949 43.3223 5.69783 42.104 7.16699 42.104H17.917C19.3862 42.104 20.6045 43.3223 20.6045 44.7915C20.6045 46.2607 19.3862 47.479 17.917 47.479Z" fill="#6280FE"/>
</svg>
