<svg width="26" height="25" viewBox="0 0 26 25" xmlns="http://www.w3.org/2000/svg">
  <path d="M13.4755 1.16629C13.4086 0.960281 13.2166 0.820801 13 0.820801C12.7834 0.820801 12.5914 0.960281 12.5245 1.16629L9.94256 9.1126H1.58732C1.37071 9.1126 1.17873 9.25208 1.11179 9.45809C1.04486 9.6641 1.11819 9.88978 1.29343 10.0171L8.05296 14.9282L5.47105 22.8745C5.40411 23.0805 5.47744 23.3062 5.65268 23.4335C5.82793 23.5608 6.06523 23.5608 6.24047 23.4335L13 18.5224L19.7595 23.4335C19.9348 23.5608 20.1721 23.5608 20.3473 23.4335C20.5226 23.3062 20.5959 23.0805 20.529 22.8745L17.947 14.9282L24.7066 10.0171C24.8818 9.88978 24.9551 9.6641 24.8882 9.45809C24.8213 9.25208 24.6293 9.1126 24.4127 9.1126H16.0574L13.4755 1.16629Z" stroke="currentColor" fill="currentColor" stroke-linejoin="round"/>
</svg>
